<svg width="30" height="30" viewBox="0 0 30 30" fill="none" xmlns="http://www.w3.org/2000/svg">
<path d="M6.875 27.5C6.375 27.5 5.9375 27.3125 5.5625 26.9375C5.1875 26.5625 5 26.125 5 25.625V9.375C5 8.875 5.1875 8.4375 5.5625 8.0625C5.9375 7.6875 6.375 7.5 6.875 7.5H10.3125V7.1875C10.3125 5.875 10.7656 4.76562 11.6719 3.85938C12.5781 2.95312 13.6875 2.5 15 2.5C16.3125 2.5 17.4219 2.95312 18.3281 3.85938C19.2344 4.76562 19.6875 5.875 19.6875 7.1875V7.5H23.125C23.625 7.5 24.0625 7.6875 24.4375 8.0625C24.8125 8.4375 25 8.875 25 9.375V25.625C25 26.125 24.8125 26.5625 24.4375 26.9375C24.0625 27.3125 23.625 27.5 23.125 27.5H6.875ZM6.875 25.625H23.125V9.375H19.6875V12.1875C19.6875 12.4531 19.5971 12.6758 19.4164 12.8555C19.2357 13.0352 19.0117 13.125 18.7445 13.125C18.4773 13.125 18.2552 13.0352 18.0781 12.8555C17.901 12.6758 17.8125 12.4531 17.8125 12.1875V9.375H12.1875V12.1875C12.1875 12.4531 12.0971 12.6758 11.9164 12.8555C11.7357 13.0352 11.5117 13.125 11.2445 13.125C10.9773 13.125 10.7552 13.0352 10.5781 12.8555C10.401 12.6758 10.3125 12.4531 10.3125 12.1875V9.375H6.875V25.625ZM12.1875 7.5H17.8125V7.1875C17.8125 6.39583 17.5417 5.72917 17 5.1875C16.4583 4.64583 15.7917 4.375 15 4.375C14.2083 4.375 13.5417 4.64583 13 5.1875C12.4583 5.72917 12.1875 6.39583 12.1875 7.1875V7.5Z" fill="black"/>
</svg>
