<svg width="40" height="46" viewBox="0 0 40 46" fill="none" xmlns="http://www.w3.org/2000/svg">
<g clip-path="url(#clip0_155_145)">
<path d="M14.2232 0.481957C14.9196 -0.169829 16 -0.160901 16.6964 0.490885C19.1607 2.80339 21.4732 5.29446 23.6339 7.99088C24.6161 6.70517 25.7321 5.30339 26.9375 4.16053C27.6429 3.49981 28.7321 3.49981 29.4375 4.16946C32.5268 7.11589 35.1429 11.0087 36.9821 14.7052C38.7946 18.348 40 22.0712 40 24.6962C40 36.0891 31.0893 45.7141 20 45.7141C8.78572 45.7141 0 36.0802 0 24.6873C0 21.2587 1.58929 17.0712 4.05357 12.9284C6.54464 8.72303 10.0625 4.3391 14.2232 0.481957ZM20.1518 37.1427C22.4107 37.1427 24.4107 36.5177 26.2946 35.2677C30.0536 32.6427 31.0625 27.3927 28.8036 23.2677C28.4018 22.4641 27.375 22.4105 26.7946 23.0891L24.5446 25.7052C23.9554 26.3837 22.8929 26.3659 22.3393 25.6605C20.8661 23.7855 18.2321 20.4373 16.7321 18.5355C16.1696 17.8212 15.0982 17.8123 14.5268 18.5266C11.5089 22.3212 9.99107 24.7141 9.99107 27.4016C10 33.5177 14.5179 37.1427 20.1518 37.1427Z" fill="#1D24DD"/>
</g>
<defs>
<clipPath id="clip0_155_145">
<rect width="40" height="45.7143" fill="white"/>
</clipPath>
</defs>
</svg>
