<svg width="26" height="24" viewBox="0 0 26 24" fill="none" xmlns="http://www.w3.org/2000/svg">
<path d="M13 23.2188L11.7188 22.0625C9.51525 20.0391 7.69354 18.2937 6.25362 16.8262C4.81371 15.3587 3.66667 14.0469 2.8125 12.8906C1.95833 11.7344 1.35938 10.6875 1.01562 9.75C0.671875 8.8125 0.5 7.86458 0.5 6.90625C0.5 5.02802 1.13021 3.45951 2.39062 2.20072C3.65104 0.941906 5.20833 0.3125 7.0625 0.3125C8.25 0.3125 9.34896 0.59375 10.3594 1.15625C11.3698 1.71875 12.25 2.53125 13 3.59375C13.875 2.46875 14.8021 1.64062 15.7812 1.10938C16.7604 0.578125 17.8125 0.3125 18.9375 0.3125C20.7917 0.3125 22.349 0.941906 23.6094 2.20072C24.8698 3.45951 25.5 5.02802 25.5 6.90625C25.5 7.86458 25.3281 8.8125 24.9844 9.75C24.6406 10.6875 24.0417 11.7344 23.1875 12.8906C22.3333 14.0469 21.1863 15.3587 19.7464 16.8262C18.3065 18.2937 16.4848 20.0391 14.2812 22.0625L13 23.2188ZM13 20.75C15.1091 18.8126 16.8447 17.1512 18.2068 15.7657C19.5689 14.3802 20.651 13.1667 21.4531 12.125C22.2552 11.0833 22.8177 10.1548 23.1406 9.33953C23.4635 8.5242 23.625 7.71461 23.625 6.91078C23.625 5.53276 23.1875 4.40104 22.3125 3.51562C21.4375 2.63021 20.3148 2.1875 18.9445 2.1875C17.8711 2.1875 16.8776 2.51562 15.9641 3.17188C15.0505 3.82812 14.3125 4.75 13.75 5.9375H12.2188C11.6771 4.77083 10.9495 3.85417 10.0359 3.1875C9.12237 2.52083 8.12889 2.1875 7.05547 2.1875C5.68516 2.1875 4.5625 2.63021 3.6875 3.51562C2.8125 4.40104 2.375 5.53454 2.375 6.91613C2.375 7.72204 2.53646 8.53646 2.85938 9.35938C3.18229 10.1823 3.74479 11.1198 4.54688 12.1719C5.34896 13.224 6.4375 14.4375 7.8125 15.8125C9.1875 17.1875 10.9167 18.8333 13 20.75Z" fill="#1D24DD"/>
</svg>
