<svg width="26" height="23" viewBox="0 0 26 23" fill="none" xmlns="http://www.w3.org/2000/svg">
<path d="M13 22.9062L11.7188 21.75C9.51525 19.7266 7.69354 17.9812 6.25362 16.5137C4.81371 15.0462 3.66667 13.7344 2.8125 12.5781C1.95833 11.4219 1.35938 10.375 1.01562 9.4375C0.671875 8.5 0.5 7.55208 0.5 6.59375C0.5 4.71552 1.13021 3.14701 2.39062 1.88822C3.65104 0.629406 5.20833 0 7.0625 0C8.25 0 9.34896 0.28125 10.3594 0.84375C11.3698 1.40625 12.25 2.21875 13 3.28125C13.875 2.15625 14.8021 1.32812 15.7812 0.796875C16.7604 0.265625 17.8125 0 18.9375 0C20.7917 0 22.349 0.629406 23.6094 1.88822C24.8698 3.14701 25.5 4.71552 25.5 6.59375C25.5 7.55208 25.3281 8.5 24.9844 9.4375C24.6406 10.375 24.0417 11.4219 23.1875 12.5781C22.3333 13.7344 21.1863 15.0462 19.7464 16.5137C18.3065 17.9812 16.4848 19.7266 14.2812 21.75L13 22.9062ZM12 19.5C11 19.5 7.63787 15.948 9 14.5625C10.5396 14.0156 12.1979 11.9628 13 10.9211C13.8021 9.87945 10.1771 11.2216 10.5 10.4062C10.8229 9.59092 23.625 7.40211 23.625 6.59828C23.1875 9.71987 13.0535 10.6053 12.1785 9.71987C11.3035 8.83445 14.094 9.57055 12.7237 9.57055C11.6503 9.57055 11.9448 8.39062 11.0312 9.04688C10.1177 9.70312 14.3125 4.4375 13.75 5.625L14.2812 9.4375C13.7396 8.27083 14.6635 11.3594 13.75 10.6927C12.8364 10.0261 15.3547 10.5403 14.2812 10.5403C12.9109 10.5403 14.625 10.0357 13.75 10.9211C12.875 11.8065 15 9.02467 15 10.4062C15 11.2122 10.6771 13.7396 11 14.5625C11.3229 15.3854 10.2292 14.0104 11.0312 15.0625C11.8333 16.1146 13.125 13.625 14.5 15C15.875 16.375 9.91667 17.5833 12 19.5Z" fill="#1D24DD"/>
</svg>
