<svg width="40" height="40" viewBox="0 0 40 40" fill="none" xmlns="http://www.w3.org/2000/svg">
<path d="M33.1667 34.9585L22.2083 24.0002C21.375 24.7224 20.4033 25.2849 19.2934 25.6877C18.1834 26.0904 17.0023 26.2918 15.75 26.2918C12.7455 26.2918 10.2027 25.2502 8.12163 23.1668C6.04054 21.0835 5 18.5696 5 15.6252C5 12.6807 6.04167 10.1668 8.125 8.0835C10.2083 6.00016 12.7292 4.9585 15.6875 4.9585C18.6458 4.9585 21.1597 6.00016 23.2292 8.0835C25.2986 10.1668 26.3333 12.6828 26.3333 15.6314C26.3333 16.8217 26.1389 17.9724 25.75 19.0835C25.3611 20.1946 24.7778 21.2363 24 22.2085L35 33.1252L33.1667 34.9585ZM15.7083 23.7918C17.9653 23.7918 19.8837 22.9932 21.4635 21.396C23.0434 19.7988 23.8333 17.8752 23.8333 15.6252C23.8333 13.3752 23.0434 11.4516 21.4635 9.85433C19.8837 8.25711 17.9653 7.4585 15.7083 7.4585C13.4283 7.4585 11.4902 8.25711 9.89408 9.85433C8.29803 11.4516 7.5 13.3752 7.5 15.6252C7.5 17.8752 8.29803 19.7988 9.89408 21.396C11.4902 22.9932 13.4283 23.7918 15.7083 23.7918Z" fill="black"/>
</svg>
