<svg width="24" height="23" viewBox="0 0 24 23" fill="none" xmlns="http://www.w3.org/2000/svg">
<path d="M11.3671 0.92705C11.6665 0.00573971 12.9699 0.0057403 13.2692 0.927051L15.3083 7.20264C15.4422 7.61466 15.8261 7.89362 16.2594 7.89362H22.8579C23.8266 7.89362 24.2294 9.13324 23.4457 9.70264L18.1074 13.5812C17.7569 13.8358 17.6102 14.2872 17.7441 14.6992L19.7831 20.9748C20.0825 21.8961 19.028 22.6622 18.2443 22.0928L12.906 18.2143C12.5555 17.9596 12.0809 17.9596 11.7304 18.2143L6.39206 22.0928C5.60835 22.6622 4.55387 21.8961 4.85322 20.9748L6.89228 14.6992C7.02616 14.2872 6.8795 13.8358 6.52901 13.5812L1.19068 9.70264C0.406966 9.13324 0.809742 7.89362 1.77847 7.89362H8.37701C8.81023 7.89362 9.19419 7.61466 9.32806 7.20264L11.3671 0.92705Z" fill="black"/>
</svg>
