<svg width="24" height="23" viewBox="0 0 24 23" fill="none" xmlns="http://www.w3.org/2000/svg">
<path d="M12.1575 1.08156L14.1965 7.35715C14.3974 7.97518 14.9733 8.39362 15.6231 8.39362H22.2217C22.706 8.39362 22.9074 9.01343 22.5156 9.29813L17.1772 13.1767C16.6515 13.5586 16.4315 14.2357 16.6323 14.8537L18.6714 21.1293C18.8211 21.5899 18.2938 21.973 17.902 21.6883L12.5636 17.8098C12.0379 17.4278 11.326 17.4278 10.8003 17.8098L5.46194 21.6883C5.07008 21.973 4.54284 21.5899 4.69252 21.1293L6.73158 14.8537C6.93239 14.2357 6.71241 13.5586 6.18668 13.1767L0.848342 9.29813C0.456485 9.01343 0.657873 8.39362 1.14223 8.39362H7.74078C8.39062 8.39362 8.96655 7.97518 9.16736 7.35715L11.2064 1.08156C11.3561 0.620904 12.0078 0.620903 12.1575 1.08156Z" stroke="black"/>
</svg>
