<svg width="24" height="23" viewBox="0 0 24 23" fill="none" xmlns="http://www.w3.org/2000/svg">
<path fill-rule="evenodd" clip-rule="evenodd" d="M11.75 1.64453V17.028C12.1176 17.0523 12.48 17.1782 12.7929 17.4055L18.1312 21.2841L16.0922 15.0085C15.8244 14.1844 16.1177 13.2817 16.8187 12.7724L22.157 8.89388H15.5585C14.692 8.89388 13.9241 8.33596 13.6564 7.51191L11.75 1.64453ZM12.5684 0.927311C12.269 0.00600076 10.9656 0.00600004 10.6663 0.927311L8.6272 7.2029C8.49333 7.61492 8.10937 7.89388 7.67614 7.89388H1.0776C0.108877 7.89388 -0.293898 9.1335 0.489815 9.7029L5.82815 13.5814C6.17864 13.8361 6.32529 14.2874 6.19142 14.6995L4.15236 20.975C3.85301 21.8964 4.90749 22.6625 5.6912 22.0931L11.0295 18.2146C11.38 17.9599 11.8546 17.9599 12.2051 18.2146L17.5434 22.0931C18.3272 22.6625 19.3816 21.8964 19.0823 20.975L17.0432 14.6995C16.9093 14.2874 17.056 13.8361 17.4065 13.5814L22.7448 9.7029C23.5285 9.1335 23.1258 7.89388 22.157 7.89388H15.5585C15.1253 7.89388 14.7413 7.61492 14.6074 7.2029L12.5684 0.927311Z" fill="black"/>
</svg>
