<svg width="16" height="15" viewBox="0 0 16 15" fill="none" xmlns="http://www.w3.org/2000/svg">
<path fill-rule="evenodd" clip-rule="evenodd" d="M7.55975 2.73583V5.71861L7.5598 11.0555C7.86919 11.0555 8.17858 11.151 8.44143 11.342L10.9477 13.1629L9.99039 10.2166C9.78958 9.59854 10.0096 8.92149 10.5353 8.53952L13.0416 6.71861H9.94365C9.29381 6.71861 8.71787 6.30017 8.51706 5.68213L7.55975 2.73583ZM7.27291 12.146C7.44742 12.0237 7.68074 12.0254 7.85364 12.151L11.6049 14.8764C11.9967 15.1611 12.524 14.778 12.3743 14.3174L10.9414 9.90756C10.8745 9.70155 10.9478 9.47586 11.1231 9.34854L14.8743 6.62312C15.2662 6.33842 15.0648 5.71861 14.5804 5.71861H9.94365C9.72703 5.71861 9.53506 5.57913 9.46812 5.37312L8.03528 0.963286C7.8856 0.50263 7.2339 0.502631 7.08422 0.963286L5.65138 5.37312C5.58444 5.57913 5.39247 5.71861 5.17585 5.71861H0.539084C0.054722 5.71861 -0.146666 6.33842 0.245191 6.62312L3.99642 9.34854C4.17166 9.47586 4.24499 9.70155 4.17805 9.90756L2.74521 14.3174L2.7452 14.3174C2.59553 14.7781 3.12276 15.1611 3.51462 14.8764L7.27291 12.146Z" fill="#FFB800"/>
</svg>
