<svg width="30" height="30" viewBox="0 0 30 30" fill="none" xmlns="http://www.w3.org/2000/svg">
<path d="M13.75 26.25V24.375H24.375V14.875C24.375 13.6667 24.1146 12.5052 23.5938 11.3906C23.0729 10.276 22.375 9.29167 21.5 8.4375C20.625 7.58333 19.625 6.90104 18.5 6.39062C17.375 5.88021 16.2083 5.625 15 5.625C13.7917 5.625 12.625 5.88021 11.5 6.39062C10.375 6.90104 9.375 7.58333 8.5 8.4375C7.625 9.29167 6.92708 10.276 6.40625 11.3906C5.88542 12.5052 5.625 13.6667 5.625 14.875V22.5H5C4.3125 22.5 3.72396 22.2552 3.23438 21.7656C2.74479 21.276 2.5 20.6875 2.5 20V17.5C2.5 17.0208 2.61458 16.599 2.84375 16.2344C3.07292 15.8698 3.375 15.5729 3.75 15.3438L3.84375 13.6875C4.03125 12.1667 4.46354 10.7917 5.14062 9.5625C5.81771 8.33333 6.66146 7.29167 7.67188 6.4375C8.68229 5.58333 9.81771 4.92188 11.0781 4.45312C12.3385 3.98438 13.6458 3.75 15 3.75C16.375 3.75 17.6927 3.98438 18.9531 4.45312C20.2135 4.92188 21.3438 5.58854 22.3438 6.45312C23.3438 7.31771 24.1823 8.35938 24.8594 9.57812C25.5365 10.7969 25.9688 12.1562 26.1562 13.6562L26.25 15.2812C26.625 15.4688 26.9271 15.7448 27.1562 16.1094C27.3854 16.474 27.5 16.875 27.5 17.3125V20.1875C27.5 20.6458 27.3854 21.0521 27.1562 21.4062C26.9271 21.7604 26.625 22.0312 26.25 22.2188V24.375C26.25 24.8906 26.0664 25.332 25.6992 25.6992C25.332 26.0664 24.8906 26.25 24.375 26.25H13.75ZM11.25 17.1875C11 17.1875 10.7812 17.0938 10.5938 16.9062C10.4062 16.7188 10.3125 16.4948 10.3125 16.2344C10.3125 15.974 10.4062 15.7552 10.5938 15.5781C10.7812 15.401 11.0052 15.3125 11.2656 15.3125C11.526 15.3125 11.7448 15.4023 11.9219 15.582C12.099 15.7617 12.1875 15.9844 12.1875 16.25C12.1875 16.5 12.0977 16.7188 11.918 16.9062C11.7383 17.0938 11.5156 17.1875 11.25 17.1875ZM18.75 17.1875C18.5 17.1875 18.2812 17.0938 18.0938 16.9062C17.9062 16.7188 17.8125 16.4948 17.8125 16.2344C17.8125 15.974 17.9062 15.7552 18.0938 15.5781C18.2812 15.401 18.5052 15.3125 18.7656 15.3125C19.026 15.3125 19.2448 15.4023 19.4219 15.582C19.599 15.7617 19.6875 15.9844 19.6875 16.25C19.6875 16.5 19.5977 16.7188 19.418 16.9062C19.2383 17.0938 19.0156 17.1875 18.75 17.1875ZM7.53125 15.5625C7.44792 14.3333 7.61979 13.2188 8.04688 12.2188C8.47396 11.2188 9.04688 10.3698 9.76562 9.67188C10.4844 8.97396 11.3125 8.4375 12.25 8.0625C13.1875 7.6875 14.125 7.5 15.0625 7.5C16.9583 7.5 18.5521 8.09896 19.8438 9.29688C21.1354 10.4948 21.9271 11.9896 22.2188 13.7812C20.2604 13.7604 18.5365 13.2344 17.0469 12.2031C15.5573 11.1719 14.4062 9.83333 13.5938 8.1875C13.2604 9.875 12.5573 11.3698 11.4844 12.6719C10.4115 13.974 9.09375 14.9375 7.53125 15.5625Z" fill="black"/>
</svg>
