<svg width="42" height="42" viewBox="0 0 42 42" fill="none" xmlns="http://www.w3.org/2000/svg">
<path d="M25.7086 2.69869C27.8414 3.12525 29.2277 5.20064 28.8012 7.33346L28.6125 8.26861C28.1777 10.4588 27.3738 12.5424 26.25 14.4374H38.0625C40.2363 14.4374 42 16.201 42 18.3749C42 19.8924 41.1387 21.2131 39.8754 21.8694C40.7695 22.5913 41.3438 23.6987 41.3438 24.9374C41.3438 26.8569 39.9656 28.4565 38.1527 28.801C38.5137 29.3999 38.7188 30.0971 38.7188 30.8436C38.7188 32.5909 37.5785 34.0756 36.0035 34.5842C36.0609 34.8549 36.0938 35.1421 36.0938 35.4374C36.0938 37.6112 34.3301 39.3749 32.1562 39.3749H24.1582C22.5996 39.3749 21.082 38.9155 19.7859 38.0542L16.6277 35.946C14.4375 34.4858 13.125 32.0249 13.125 29.3917V26.2499V22.3124V20.2698C13.125 17.8745 14.216 15.6186 16.0781 14.1174L16.6852 13.6335C18.859 11.8944 20.3438 9.44986 20.8852 6.72643L21.0738 5.79127C21.5004 3.65846 23.5758 2.27213 25.7086 2.69869ZM2.625 15.7499H7.875C9.32695 15.7499 10.5 16.9229 10.5 18.3749V36.7499C10.5 38.2018 9.32695 39.3749 7.875 39.3749H2.625C1.17305 39.3749 0 38.2018 0 36.7499V18.3749C0 16.9229 1.17305 15.7499 2.625 15.7499Z" fill="#1D24DD"/>
</svg>
