<svg width="26" height="26" viewBox="0 0 26 26" fill="none" xmlns="http://www.w3.org/2000/svg">
<path d="M11.1562 18.6875L20 9.84375L18.5625 8.4375L11.1562 15.8438L7.40625 12.0938L6 13.5L11.1562 18.6875ZM13 25.5C11.2917 25.5 9.67708 25.1719 8.15625 24.5156C6.63542 23.8594 5.30729 22.9635 4.17188 21.8281C3.03646 20.6927 2.14062 19.3646 1.48438 17.8438C0.828125 16.3229 0.5 14.7083 0.5 13C0.5 11.2708 0.828125 9.64583 1.48438 8.125C2.14062 6.60417 3.03646 5.28125 4.17188 4.15625C5.30729 3.03125 6.63542 2.14062 8.15625 1.48438C9.67708 0.828125 11.2917 0.5 13 0.5C14.7292 0.5 16.3542 0.828125 17.875 1.48438C19.3958 2.14062 20.7188 3.03125 21.8438 4.15625C22.9688 5.28125 23.8594 6.60417 24.5156 8.125C25.1719 9.64583 25.5 11.2708 25.5 13C25.5 14.7083 25.1719 16.3229 24.5156 17.8438C23.8594 19.3646 22.9688 20.6927 21.8438 21.8281C20.7188 22.9635 19.3958 23.8594 17.875 24.5156C16.3542 25.1719 14.7292 25.5 13 25.5Z" fill="#DDDDDD"/>
</svg>
