<svg width="54" height="54" viewBox="0 0 54 54" fill="none" xmlns="http://www.w3.org/2000/svg">
<circle cx="27" cy="27" r="27" fill="#CDD0DC"/>
<path d="M27 25.8857C25.515 25.8857 24.3 25.4132 23.355 24.4682C22.41 23.5232 21.9375 22.3082 21.9375 20.8232C21.9375 19.3382 22.41 18.1232 23.355 17.1782C24.3 16.2332 25.515 15.7607 27 15.7607C28.485 15.7607 29.7 16.2332 30.645 17.1782C31.59 18.1232 32.0625 19.3382 32.0625 20.8232C32.0625 22.3082 31.59 23.5232 30.645 24.4682C29.7 25.4132 28.485 25.8857 27 25.8857ZM16.2 36.7195V33.547C16.2 32.692 16.4137 31.9607 16.8412 31.3532C17.2687 30.7457 17.82 30.2845 18.495 29.9695C20.0025 29.2945 21.4481 28.7882 22.8318 28.4507C24.2156 28.1132 25.605 27.9445 27 27.9445C28.395 27.9445 29.7787 28.1189 31.1512 28.4676C32.5237 28.8164 33.9637 29.317 35.4712 29.9695C36.1687 30.2845 36.7312 30.7457 37.1587 31.3532C37.5862 31.9607 37.8 32.692 37.8 33.547V36.7195H16.2Z" fill="white"/>
</svg>
