<svg width="80" height="80" viewBox="0 0 80 80" fill="none" xmlns="http://www.w3.org/2000/svg">
<circle cx="40" cy="40" r="40" fill="#1D24DD" fill-opacity="0.05"/>
<path d="M50.7221 56.0001L42.8888 48.1668L45.2221 45.8334L50.7221 51.3334L62.5554 39.5001L64.8888 41.8334L50.7221 56.0001ZM38.2221 37.2223C35.7777 37.2223 33.7777 36.4446 32.2221 34.889C30.6666 33.3334 29.8888 31.3334 29.8888 28.889C29.8888 26.4446 30.6666 24.4446 32.2221 22.889C33.7777 21.3334 35.7777 20.5557 38.2221 20.5557C40.6666 20.5557 42.6666 21.3334 44.2221 22.889C45.7777 24.4446 46.5554 26.4446 46.5554 28.889C46.5554 31.3334 45.7777 33.3334 44.2221 34.889C42.6666 36.4446 40.6666 37.2223 38.2221 37.2223ZM45.3332 41.5557L38.4443 48.7223L44.8332 55.1112H20.4443V49.889C20.4443 48.6297 20.7592 47.4723 21.3888 46.4168C22.0184 45.3612 22.9629 44.5557 24.2221 44.0001C26.8888 42.8149 29.3332 41.9631 31.5554 41.4446C33.7777 40.926 35.9999 40.6668 38.2221 40.6668C39.2962 40.6668 40.4351 40.7316 41.6388 40.8612C42.8425 40.9908 44.074 41.2223 45.3332 41.5557Z" fill="#1D24DD"/>
</svg>
