<svg width="150" height="41" viewBox="0 0 150 41" fill="none" xmlns="http://www.w3.org/2000/svg">
<path d="M0.953125 23.1562C0.953125 21.4375 1.15625 19.7891 1.5625 18.2109C1.98438 16.6172 2.57812 15.1328 3.34375 13.7578C4.10938 12.3828 5.03125 11.1328 6.10938 10.0078C7.20312 8.88281 8.42188 7.92188 9.76562 7.125C11.1094 6.3125 12.5625 5.6875 14.125 5.25C15.7031 4.8125 17.3594 4.59375 19.0938 4.59375C20.4688 4.59375 21.6719 4.6875 22.7031 4.875C23.75 5.04688 24.6562 5.27344 25.4219 5.55469C26.2031 5.82031 26.8516 6.11719 27.3672 6.44531C27.8984 6.77344 28.3359 7.08594 28.6797 7.38281C28.6641 7.38281 28.6562 7.4375 28.6562 7.54688C28.6562 7.78125 28.6719 8.21094 28.7031 8.83594C28.75 9.46094 28.7969 10.1562 28.8438 10.9219C28.9062 11.6875 28.9531 12.4688 28.9844 13.2656C29.0312 14.0469 29.0547 14.7266 29.0547 15.3047C29.0547 15.3984 29.0234 15.5078 28.9609 15.6328C28.8984 15.7422 28.7422 15.7969 28.4922 15.7969C28.3516 15.7969 28.1797 15.7734 27.9766 15.7266C27.6484 15.6328 27.2344 15.4219 26.7344 15.0938C26.2344 14.75 25.6484 14.3984 24.9766 14.0391C24.3203 13.6641 23.5781 13.3359 22.75 13.0547C21.9375 12.7578 21.0469 12.6094 20.0781 12.6094C18.7969 12.6094 17.6328 12.8672 16.5859 13.3828C15.5391 13.8828 14.6484 14.5781 13.9141 15.4688C13.1797 16.3594 12.6094 17.4219 12.2031 18.6562C11.7969 19.875 11.5938 21.2109 11.5938 22.6641C11.5938 23.9453 11.7344 25.1719 12.0156 26.3438C12.2969 27.5 12.7188 28.5156 13.2812 29.3906C13.8594 30.2656 14.5703 30.9688 15.4141 31.5C16.2734 32.0156 17.2656 32.2734 18.3906 32.2734C19.2812 32.2734 20.0703 32.2422 20.7578 32.1797C21.4453 32.1172 22.0859 32.0156 22.6797 31.875C23.2734 31.7344 23.8516 31.5469 24.4141 31.3125C24.9922 31.0781 25.6094 30.7812 26.2656 30.4219C26.2969 30.4062 26.375 30.3984 26.5 30.3984C26.6094 30.3984 26.6797 30.4453 26.7109 30.5391C26.7578 30.6172 26.7812 30.7891 26.7812 31.0547V33.8672C26.7812 34.3828 26.7734 34.8906 26.7578 35.3906C26.7578 35.875 26.75 36.3125 26.7344 36.7031C26.7344 37.0938 26.7266 37.4141 26.7109 37.6641C26.7109 37.8984 26.7031 38.0156 26.6875 38.0156C25.9688 38.4688 25.1953 38.8359 24.3672 39.1172C23.5547 39.4141 22.7109 39.6406 21.8359 39.7969C20.9766 39.9688 20.1094 40.0781 19.2344 40.125C18.3594 40.1875 17.5156 40.2188 16.7031 40.2188C14.5 40.2188 12.4375 39.8047 10.5156 38.9766C8.59375 38.1328 6.92188 36.9609 5.5 35.4609C4.09375 33.9609 2.98438 32.1641 2.17188 30.0703C1.35938 27.9766 0.953125 25.6719 0.953125 23.1562Z" fill="#1D24DD"/>
<path d="M47.9125 19.9219C47.5844 19.8906 47.2172 19.8594 46.8109 19.8281C46.4047 19.7812 45.975 19.7578 45.5219 19.7578C44.8344 19.7578 44.1312 19.8203 43.4125 19.9453C42.7094 20.0547 42.0531 20.2812 41.4437 20.625C40.8344 20.9688 40.3109 21.4453 39.8734 22.0547C39.4359 22.6484 39.1547 23.4219 39.0297 24.375C38.9203 25.5312 38.8266 26.4844 38.7484 27.2344C38.6859 27.9688 38.6391 28.5781 38.6078 29.0625C38.5766 29.5312 38.5453 29.9141 38.5141 30.2109C38.4984 30.4922 38.4828 30.7578 38.4672 31.0078C38.4672 31.0703 38.4516 31.2422 38.4203 31.5234C38.4047 31.8047 38.3734 32.1328 38.3266 32.5078C38.2797 32.8828 38.2328 33.2891 38.1859 33.7266C38.1547 34.1641 38.1156 34.5703 38.0687 34.9453C38.0219 35.3203 37.9828 35.6484 37.9516 35.9297C37.9359 36.2109 37.9281 36.3828 37.9281 36.4453C37.9281 36.5703 37.9281 36.6797 37.9281 36.7734C37.9437 36.8516 37.9516 36.9297 37.9516 37.0078C37.9516 37.1328 37.8891 37.2422 37.7641 37.3359C37.6547 37.4141 37.3969 37.5078 36.9906 37.6172L30.7797 39.8438C30.6078 39.9062 30.3812 39.9844 30.1 40.0781C29.8187 40.1719 29.5453 40.2188 29.2797 40.2188C29.0609 40.2188 28.8656 40.1641 28.6938 40.0547C28.5375 39.9453 28.4594 39.7578 28.4594 39.4922L30.475 16.2656C30.5219 15.75 30.5766 15.3984 30.6391 15.2109C30.7172 15.0078 30.8969 14.875 31.1781 14.8125C32.6 14.5312 34.0687 14.25 35.5844 13.9688C37.1 13.6719 38.5687 13.2969 39.9906 12.8438C40.1156 12.8438 40.1859 12.8672 40.2016 12.9141C40.2328 12.9453 40.2484 13 40.2484 13.0781C40.2484 13.1094 40.2406 13.1562 40.225 13.2188C40.225 13.2812 40.2016 13.4219 40.1547 13.6406C40.1234 13.8594 40.0687 14.1953 39.9906 14.6484C39.9281 15.0859 39.8344 15.7031 39.7094 16.5C40.4281 15.9375 41.2172 15.4219 42.0766 14.9531C42.9516 14.4844 43.8266 14.0859 44.7016 13.7578C45.5766 13.4141 46.4203 13.1484 47.2328 12.9609C48.0453 12.7578 48.7562 12.6562 49.3656 12.6562L47.9125 19.9219Z" fill="#1D24DD"/>
<path d="M59.8094 40.2188C57.6063 40.2188 55.6688 39.8594 53.9969 39.1406C52.3406 38.4219 50.95 37.4688 49.825 36.2812C48.7 35.0781 47.8563 33.7031 47.2938 32.1562C46.7313 30.5938 46.45 28.9766 46.45 27.3047C46.45 25.6328 46.7234 24.0469 47.2703 22.5469C47.8172 21.0312 48.5828 19.6797 49.5672 18.4922C50.5516 17.2891 51.7313 16.2891 53.1063 15.4922C54.4813 14.6797 55.9969 14.1328 57.6531 13.8516C57.9031 13.8359 58.0281 13.7812 58.0281 13.6875C58.0281 13.5156 58.0047 13.3594 57.9578 13.2188C57.9266 13.0625 57.9109 12.9297 57.9109 12.8203C57.9109 12.6484 57.9422 12.5312 58.0047 12.4688C58.0672 12.4062 58.1375 12.375 58.2156 12.375C61.2 12.375 63.7391 12.7188 65.8328 13.4062C67.9266 14.0781 69.6297 15 70.9422 16.1719C72.2547 17.3438 73.2078 18.7266 73.8016 20.3203C74.3953 21.9141 74.6922 23.625 74.6922 25.4531C74.6922 27.7812 74.3016 29.8594 73.5203 31.6875C72.7391 33.5156 71.6687 35.0625 70.3094 36.3281C68.9656 37.5938 67.3875 38.5547 65.575 39.2109C63.7781 39.8828 61.8563 40.2188 59.8094 40.2188ZM55.4734 27.0469C55.4734 27.8906 55.5594 28.7266 55.7313 29.5547C55.9188 30.3828 56.2156 31.1328 56.6219 31.8047C57.0438 32.4766 57.5906 33.0234 58.2625 33.4453C58.9344 33.8516 59.7703 34.0547 60.7703 34.0547C61.4891 34.0234 62.1141 33.8672 62.6453 33.5859C63.1922 33.2891 63.6609 32.9141 64.0516 32.4609C64.4422 31.9922 64.7625 31.4688 65.0125 30.8906C65.2781 30.3125 65.4812 29.7188 65.6219 29.1094C65.7781 28.4844 65.8875 27.875 65.95 27.2812C66.0125 26.6875 66.0437 26.1484 66.0437 25.6641C66.0437 24.8516 65.9187 24.0547 65.6687 23.2734C65.4344 22.4922 65.0828 21.8047 64.6141 21.2109C64.1453 20.6172 63.5594 20.1406 62.8562 19.7812C62.1687 19.4062 61.3719 19.2188 60.4656 19.2188C59.5281 19.2188 58.7391 19.5 58.0984 20.0625C57.4578 20.6094 56.9422 21.2891 56.5516 22.1016C56.1766 22.9141 55.9031 23.7734 55.7313 24.6797C55.5594 25.5703 55.4734 26.3594 55.4734 27.0469Z" fill="#1D24DD"/>
<path d="M77.9406 39.3516C77.9563 39.1797 77.9875 38.8125 78.0344 38.25C78.0969 37.6719 78.1672 36.9453 78.2453 36.0703C78.3234 35.1953 78.4094 34.1953 78.5031 33.0703C78.6125 31.9297 78.7297 30.7109 78.8547 29.4141C78.9797 28.1016 79.1047 26.7344 79.2297 25.3125C79.3703 23.8906 79.5109 22.4531 79.6516 21H76.5344C75.6906 21 75.0813 20.9688 74.7063 20.9062C74.3313 20.8281 74.1438 20.6797 74.1438 20.4609C74.1438 20.3984 74.2219 20.2344 74.3781 19.9688C74.5344 19.6875 74.7297 19.3594 74.9641 18.9844C75.2141 18.5938 75.4797 18.1797 75.7609 17.7422C76.0422 17.3047 76.3078 16.8984 76.5578 16.5234C76.8234 16.1328 77.05 15.7969 77.2375 15.5156C77.425 15.2344 77.5422 15.0625 77.5891 15H80.4484L80.9172 11.2734C81.1359 9.30469 81.5266 7.64844 82.0891 6.30469C82.6672 4.96094 83.3781 3.875 84.2219 3.04688C85.0813 2.21875 86.0578 1.625 87.1516 1.26562C88.2453 0.90625 89.4172 0.726562 90.6672 0.726562C91.9172 0.726562 93.2141 0.882812 94.5578 1.19531C95.9172 1.49219 97.2844 1.90625 98.6594 2.4375C98.9563 2.5625 99.175 2.67188 99.3156 2.76562C99.4719 2.84375 99.55 2.95312 99.55 3.09375C99.55 3.21875 99.4953 3.38281 99.3859 3.58594C98.8859 4.55469 98.5109 5.33594 98.2609 5.92969C98.0266 6.52344 97.8391 6.99219 97.6984 7.33594C97.5578 7.67969 97.4406 7.91406 97.3469 8.03906C97.2531 8.14844 97.1125 8.20312 96.925 8.20312C96.8313 8.20312 96.7297 8.17969 96.6203 8.13281C96.5266 8.08594 96.4094 8.03125 96.2688 7.96875C95.7219 7.76562 95.1672 7.58594 94.6047 7.42969C94.0578 7.25781 93.5344 7.17188 93.0344 7.17188C92.3313 7.17188 91.7219 7.39062 91.2063 7.82812C90.7063 8.26562 90.3078 9.09375 90.0109 10.3125C89.8391 11.0156 89.6984 11.7734 89.5891 12.5859C89.4797 13.3984 89.3859 14.2031 89.3078 15H95.425C95.55 15 95.6672 15.0469 95.7766 15.1406C95.9016 15.2188 95.9641 15.3594 95.9641 15.5625C95.9641 15.6406 95.8703 15.9219 95.6828 16.4062C95.4953 16.8906 95.2297 17.5234 94.8859 18.3047L94.0422 20.2031C93.9328 20.4375 93.8156 20.6094 93.6906 20.7188C93.5813 20.8281 93.3469 20.8984 92.9875 20.9297H88.9328C88.7609 22.5547 88.5969 24.1641 88.4406 25.7578C88.2844 27.3516 88.1359 28.8516 87.9953 30.2578C87.8547 31.6484 87.7297 32.8906 87.6203 33.9844C87.5109 35.0625 87.425 35.8984 87.3625 36.4922C87.3469 36.5391 87.3391 36.625 87.3391 36.75C87.3391 36.8125 87.3391 36.8672 87.3391 36.9141C87.3547 36.9609 87.3625 37 87.3625 37.0312C87.3625 37.1719 87.3078 37.2891 87.1984 37.3828C87.1047 37.4609 86.8469 37.5547 86.425 37.6641L80.2609 39.8438C80.0891 39.9062 79.8625 39.9844 79.5813 40.0781C79.3 40.1719 79.0266 40.2188 78.7609 40.2188C78.4953 40.2188 78.2922 40.1562 78.1516 40.0312C78.0109 39.9062 77.9406 39.6797 77.9406 39.3516Z" fill="#1D24DD"/>
<path d="M96.8688 39.3516C96.8844 39.1797 96.9156 38.8125 96.9625 38.25C97.025 37.6719 97.0953 36.9453 97.1734 36.0703C97.2516 35.1953 97.3375 34.1953 97.4313 33.0703C97.5406 31.9297 97.6578 30.7109 97.7828 29.4141C97.9078 28.1016 98.0328 26.7344 98.1578 25.3125C98.2984 23.8906 98.4391 22.4531 98.5797 21H95.4625C94.6188 21 94.0094 20.9688 93.6344 20.9062C93.2594 20.8281 93.0719 20.6797 93.0719 20.4609C93.0719 20.3984 93.15 20.2344 93.3063 19.9688C93.4625 19.6875 93.6578 19.3594 93.8922 18.9844C94.1422 18.5938 94.4078 18.1797 94.6891 17.7422C94.9703 17.3047 95.2359 16.8984 95.4859 16.5234C95.7516 16.1328 95.9781 15.7969 96.1656 15.5156C96.3531 15.2344 96.4703 15.0625 96.5172 15H99.3766L99.8453 11.2734C100.064 9.30469 100.455 7.64844 101.017 6.30469C101.595 4.96094 102.306 3.875 103.15 3.04688C104.009 2.21875 104.986 1.625 106.08 1.26562C107.173 0.90625 108.345 0.726562 109.595 0.726562C110.845 0.726562 112.142 0.882812 113.486 1.19531C114.845 1.49219 116.213 1.90625 117.588 2.4375C117.884 2.5625 118.103 2.67188 118.244 2.76562C118.4 2.84375 118.478 2.95312 118.478 3.09375C118.478 3.21875 118.423 3.38281 118.314 3.58594C117.814 4.55469 117.439 5.33594 117.189 5.92969C116.955 6.52344 116.767 6.99219 116.627 7.33594C116.486 7.67969 116.369 7.91406 116.275 8.03906C116.181 8.14844 116.041 8.20312 115.853 8.20312C115.759 8.20312 115.658 8.17969 115.548 8.13281C115.455 8.08594 115.338 8.03125 115.197 7.96875C114.65 7.76562 114.095 7.58594 113.533 7.42969C112.986 7.25781 112.463 7.17188 111.963 7.17188C111.259 7.17188 110.65 7.39062 110.134 7.82812C109.634 8.26562 109.236 9.09375 108.939 10.3125C108.767 11.0156 108.627 11.7734 108.517 12.5859C108.408 13.3984 108.314 14.2031 108.236 15H114.353C114.478 15 114.595 15.0469 114.705 15.1406C114.83 15.2188 114.892 15.3594 114.892 15.5625C114.892 15.6406 114.798 15.9219 114.611 16.4062C114.423 16.8906 114.158 17.5234 113.814 18.3047L112.97 20.2031C112.861 20.4375 112.744 20.6094 112.619 20.7188C112.509 20.8281 112.275 20.8984 111.916 20.9297H107.861C107.689 22.5547 107.525 24.1641 107.369 25.7578C107.213 27.3516 107.064 28.8516 106.923 30.2578C106.783 31.6484 106.658 32.8906 106.548 33.9844C106.439 35.0625 106.353 35.8984 106.291 36.4922C106.275 36.5391 106.267 36.625 106.267 36.75C106.267 36.8125 106.267 36.8672 106.267 36.9141C106.283 36.9609 106.291 37 106.291 37.0312C106.291 37.1719 106.236 37.2891 106.127 37.3828C106.033 37.4609 105.775 37.5547 105.353 37.6641L99.1891 39.8438C99.0172 39.9062 98.7906 39.9844 98.5094 40.0781C98.2281 40.1719 97.9547 40.2188 97.6891 40.2188C97.4234 40.2188 97.2203 40.1562 97.0797 40.0312C96.9391 39.9062 96.8688 39.6797 96.8688 39.3516Z" fill="#1D24DD"/>
<path d="M114.789 19.1719C114.977 17.0312 115.125 14.9141 115.234 12.8203C115.359 10.7266 115.492 8.57812 115.633 6.375C115.664 5.85938 115.711 5.50781 115.773 5.32031C115.852 5.11719 116.031 4.98438 116.312 4.92188C117.766 4.65625 119.219 4.39062 120.672 4.125C122.141 3.84375 123.609 3.47656 125.078 3.02344C125.125 3.00781 125.195 3 125.289 3C125.461 3 125.547 3.07812 125.547 3.23438L122.5 36.7031V37.1016C122.5 37.2422 122.445 37.3594 122.336 37.4531C122.227 37.5312 121.969 37.625 121.562 37.7344L115.422 39.9844C115.25 40.0625 115.023 40.1406 114.742 40.2188C114.461 40.3125 114.188 40.3594 113.922 40.3594C113.703 40.3594 113.508 40.3047 113.336 40.1953C113.18 40.0859 113.102 39.8984 113.102 39.6328V39.4922C113.227 37.9141 113.344 36.375 113.453 34.875C113.578 33.3594 113.703 31.7969 113.828 30.1875C113.969 28.5781 114.117 26.875 114.273 25.0781C114.43 23.2812 114.602 21.3125 114.789 19.1719Z" fill="#1D24DD"/>
<path d="M139.319 12.8438C140.803 12.8438 142.147 13.125 143.35 13.6875C144.569 14.2344 145.608 14.9531 146.467 15.8438C147.342 16.7188 148.014 17.7031 148.483 18.7969C148.952 19.8906 149.186 20.9844 149.186 22.0781C149.186 23.0469 148.889 24.0234 148.295 25.0078C147.702 25.9766 146.866 26.8516 145.788 27.6328C144.725 28.4141 143.444 29.0469 141.944 29.5312C140.444 30.0156 138.795 30.2578 136.998 30.2578C136.061 30.2578 135.077 30.1641 134.045 29.9766C134.108 30.6484 134.303 31.2266 134.631 31.7109C134.959 32.1953 135.373 32.5938 135.873 32.9062C136.373 33.2188 136.936 33.4531 137.561 33.6094C138.202 33.75 138.858 33.8203 139.53 33.8203C140.28 33.8203 140.998 33.7578 141.686 33.6328C142.389 33.4922 143.061 33.3125 143.702 33.0938C144.342 32.875 144.959 32.6328 145.553 32.3672C146.147 32.1016 146.709 31.8359 147.241 31.5703C147.381 31.5391 147.498 31.5156 147.592 31.5C147.702 31.4688 147.803 31.4531 147.897 31.4531C147.897 31.4531 147.889 31.5781 147.873 31.8281C147.873 32.0781 147.873 32.4297 147.873 32.8828C147.873 33.3359 147.866 33.8828 147.85 34.5234C147.85 35.1641 147.842 35.875 147.827 36.6562C147.873 36.7344 147.905 36.8125 147.92 36.8906C147.936 36.9688 147.944 37.0312 147.944 37.0781C147.944 37.2656 147.772 37.4688 147.428 37.6875C147.084 37.9062 146.631 38.1328 146.069 38.3672C145.522 38.6016 144.889 38.8281 144.17 39.0469C143.467 39.2656 142.748 39.4609 142.014 39.6328C141.28 39.8203 140.569 39.9609 139.881 40.0547C139.194 40.1641 138.592 40.2188 138.077 40.2188C136.389 40.2188 134.748 39.9219 133.155 39.3281C131.577 38.75 130.17 37.9141 128.936 36.8203C127.717 35.7266 126.741 34.3984 126.006 32.8359C125.272 31.2734 124.905 29.5156 124.905 27.5625C124.905 25.5156 125.256 23.6016 125.959 21.8203C126.662 20.0234 127.647 18.4609 128.913 17.1328C130.194 15.8047 131.717 14.7578 133.483 13.9922C135.248 13.2266 137.194 12.8438 139.319 12.8438ZM139.038 19.0781C138.397 19.0781 137.803 19.2188 137.256 19.5C136.725 19.7656 136.233 20.1562 135.78 20.6719C135.342 21.1719 134.959 21.7812 134.631 22.5C134.303 23.2031 134.038 23.9844 133.834 24.8438C135.444 24.5625 136.78 24.2656 137.842 23.9531C138.905 23.6406 139.756 23.3281 140.397 23.0156C141.038 22.6875 141.491 22.3672 141.756 22.0547C142.022 21.7266 142.155 21.4141 142.155 21.1172C142.155 20.8359 142.045 20.5703 141.827 20.3203C141.623 20.0703 141.366 19.8516 141.053 19.6641C140.741 19.4766 140.397 19.3359 140.022 19.2422C139.663 19.1328 139.334 19.0781 139.038 19.0781Z" fill="#1D24DD"/>
</svg>
